<svg width="43" height="26" viewBox="0 0 43 26" fill="none" xmlns="http://www.w3.org/2000/svg">
<path fill-rule="evenodd" clip-rule="evenodd" d="M26.4266 19.1299H41.5143C42.0168 19.1299 42.4257 19.5272 42.4257 20.0156V22.1081V22.8288V25.3956C42.4257 25.7295 42.1475 26 41.8042 26C41.4609 26 41.1828 25.7295 41.1828 25.3956V23.4332H34.5103C34.167 23.4332 33.8889 23.1627 33.8889 22.8288C33.8889 22.495 34.167 22.2245 34.5103 22.2245H41.1828V22.1081V20.3387H26.4266V22.2245H31.98C32.3233 22.2245 32.6015 22.495 32.6015 22.8288C32.6015 23.1627 32.3233 23.4332 31.98 23.4332H26.4266V24.54C26.4266 25.1489 25.9156 25.6442 25.2875 25.6442H13.2133C5.9275 25.6442 0 19.8922 0 12.8221C0 5.75199 5.9275 0 13.2133 0C19.0333 0 23.9862 3.67052 25.7435 8.75128H27.9903C28.531 8.75128 28.9708 9.13581 29.0846 9.70825L29.9352 14.0052C30.0077 14.367 29.9335 14.702 29.7258 14.9471C29.5264 15.1824 29.2224 15.312 28.8698 15.312H26.4266V19.1299ZM28.689 14.1033L27.8686 9.9599H26.0944C26.3115 10.8805 26.4266 11.8386 26.4266 12.8221V14.1033H28.689ZM1.25902 13.4265H3.52316L3.60453 13.427C3.61986 13.4271 3.63593 13.4273 3.65267 13.4273C3.82039 13.4273 4.04991 13.4122 4.23992 13.2245C4.44608 13.0209 4.43995 12.7793 4.43655 12.6495C4.43547 12.6075 4.4344 12.5641 4.43655 12.507C4.49729 10.8882 5.02778 9.33025 5.97076 8.00148C6.16573 7.72678 6.09472 7.35039 5.81224 7.16078C5.52984 6.97117 5.14263 7.04023 4.94773 7.31493C3.91775 8.76643 3.31832 10.4569 3.20679 12.2177H1.25902C1.57356 6.29357 6.48533 1.52861 12.5918 1.22418V3.11355C10.6344 3.22918 8.77624 3.89099 7.20292 5.03539C6.92807 5.23523 6.87189 5.61404 7.07747 5.88132C7.19953 6.04007 7.38638 6.12371 7.57564 6.12371C7.70515 6.12371 7.83575 6.08455 7.94736 6.00332C9.3837 4.9586 11.0914 4.37302 12.8866 4.30976C12.9456 4.30765 12.9922 4.30866 13.0291 4.30945L13.0322 4.30952L13.0352 4.30957C13.1707 4.31193 13.4188 4.31626 13.6265 4.11669C13.8386 3.91326 13.8366 3.67147 13.8351 3.49485V3.49477L13.8348 1.22418C20.1475 1.53901 25.1835 6.62065 25.1835 12.822V19.7341V21.3362H13.6901C13.0844 21.3362 12.5918 21.8149 12.5918 22.4032V24.4199C6.48541 24.1155 1.57365 19.3506 1.25902 13.4265ZM13.8348 24.4355H25.1836V22.8288V22.545H13.8348V24.4355Z" fill="black"/>
<path fill-rule="evenodd" clip-rule="evenodd" d="M19.2016 19.9333H13.2592C9.3596 19.9333 6.18701 17.0169 6.18701 13.4322C6.18701 9.84872 9.3596 6.93333 13.2592 6.93333C17.1575 6.93333 20.3289 9.8488 20.3289 13.4322V18.8937C20.3289 19.4669 19.8232 19.9333 19.2016 19.9333ZM19.0723 13.4322C19.0723 10.487 16.4645 8.09082 13.2592 8.09082C10.0525 8.09082 7.44362 10.487 7.44362 13.4322C7.44362 16.3787 10.0525 18.7759 13.2592 18.7759H19.0723V13.4322Z" fill="black"/>
<path fill-rule="evenodd" clip-rule="evenodd" d="M15.5173 15.6H10.999C10.2952 15.6 9.72266 15.1112 9.72266 14.5103V12.354C9.72266 11.7545 10.2952 11.2667 10.999 11.2667H15.5173C16.221 11.2667 16.7936 11.7545 16.7936 12.354V14.5103C16.7936 15.1112 16.221 15.6 15.5173 15.6ZM15.374 12.4773H11.1423V14.3894H15.374V12.4773Z" fill="black"/>
</svg>
