<svg width="67" height="34" viewBox="0 0 67 34" fill="none" xmlns="http://www.w3.org/2000/svg">
<path fill-rule="evenodd" clip-rule="evenodd" d="M62.2686 9.63027H63.2938C64.8981 9.63027 66.2031 10.4676 66.2031 11.4969V23.0395C66.2031 24.755 64.028 26.1506 61.3543 26.1506H58.334V32.2521C58.334 33.2158 57.1118 34 55.6096 34C54.1867 34 52.993 33.2866 52.8922 32.3759L52.2023 26.1505H24.0514C23.5158 26.1505 23.0816 25.8719 23.0816 25.5283C23.0816 25.1847 23.5158 24.9061 24.0514 24.9061H61.3541C62.9584 24.9061 64.2635 24.0687 64.2635 23.0394V11.4968C64.2635 11.1537 63.8285 10.8746 63.2937 10.8746H59.3038C58.836 10.8746 58.4444 11.0882 58.3538 11.3716C58.3409 11.412 58.334 11.4539 58.334 11.4968V14.4762H59.8959C61.1991 14.4762 62.2594 15.1565 62.2594 15.9927V19.5853C62.2594 20.4215 61.1991 21.1018 59.8959 21.1018H6.30727C5.00403 21.1018 3.94374 20.4216 3.94374 19.5854V15.9928C3.94374 15.1566 5.00403 14.4763 6.30727 14.4763H7.86899V11.4969C7.86899 11.454 7.86214 11.4121 7.84921 11.3716C7.7587 11.0884 7.36704 10.8747 6.89922 10.8747H2.90932C2.37452 10.8747 1.93954 11.1538 1.93954 11.4969V23.0394C1.93954 24.0687 3.2446 24.9061 4.84886 24.9061H19.5259C20.0615 24.9061 20.4957 25.1847 20.4957 25.5283C20.4957 25.8719 20.0615 26.1505 19.5259 26.1505H14.0005L13.3107 32.3759C13.2099 33.2866 12.0161 34 10.5933 34C9.09116 34 7.86899 33.2159 7.86899 32.2521V26.1506H4.84886C2.17513 26.1506 0 24.755 0 23.0395V11.4969C0 10.4676 1.30505 9.63027 2.90932 9.63027H3.93456V2.86218C3.93456 1.284 5.93578 0 8.39551 0H29.6104C31.0231 0 32.2836 0.424017 33.1016 1.08356C33.9195 0.424017 35.18 0 36.5927 0H57.8075C59.9853 0 61.8341 0.998028 62.2035 2.37328C62.2946 2.71193 61.9404 3.03374 61.4126 3.09215C60.8846 3.15038 60.3832 2.92332 60.2922 2.58467C60.0836 1.80798 59.0387 1.24442 57.8076 1.24442H36.5926C35.2023 1.24442 34.0712 1.97017 34.0712 2.86218V14.5007C34.0841 14.4992 34.0946 14.4978 34.1046 14.4964L34.1047 14.4964L34.1147 14.4951C34.2803 14.4733 34.4488 14.4734 43.0778 14.4749H43.0788H43.0801H43.0816C46.2444 14.4755 50.5433 14.4763 56.3945 14.4763V11.4969C56.3945 10.4676 57.6995 9.63027 59.3038 9.63027H60.329V5.38064C60.329 5.03702 60.7632 4.75843 61.2988 4.75843C61.8344 4.75843 62.2686 5.03702 62.2686 5.38064V9.63027ZM11.6288 32.2862L12.2122 26.122H10.284V32.2504C10.284 32.5292 10.5859 32.7561 10.9572 32.7561C11.3089 32.7561 11.6039 32.5497 11.6288 32.2862ZM60.4184 19.6298C60.4184 19.7802 60.2274 19.9024 59.9927 19.9024H34.0657V18.2513V16.0287C34.0657 15.8783 34.2566 15.7561 34.4914 15.7561H59.9927C60.2274 15.7561 60.4184 15.8784 60.4184 16.0287V19.6298ZM5.78474 9.63735H6.81369C8.42375 9.63735 9.73352 10.4754 9.73352 11.5057V14.4878C15.6247 14.4878 19.9505 14.487 23.1304 14.4865H23.1374H23.1377C31.8114 14.485 31.9528 14.4849 32.0911 14.5057L32.098 14.5068C32.109 14.5085 32.1208 14.5103 32.1374 14.5122V2.86312C32.1374 1.97031 31.0022 1.2439 29.6069 1.2439H8.31526C6.91997 1.2439 5.78474 1.97031 5.78474 2.86312V9.63735ZM5.78474 19.6299V16.0288C5.78474 15.8784 5.9757 15.7561 6.21041 15.7561H31.7118C31.9465 15.7561 32.1374 15.8784 32.1374 16.0288V18.2514V19.9024H6.21041C5.9757 19.9024 5.78474 19.7802 5.78474 19.6299ZM55.2458 32.7561C55.6171 32.7561 55.9191 32.5293 55.9191 32.2504V26.122H53.9909L54.5743 32.2862C54.5992 32.5497 54.8942 32.7561 55.2458 32.7561Z" fill="black"/>
</svg>
